<svg id="icons" enable-background="new 0 0 64 64" height="512" viewBox="0 0 64 64" width="512" xmlns="http://www.w3.org/2000/svg"><g fill="#ccd1d9"><path d="m57.01 35.99c1.101 0 2 .899 2 2 0 1.109-.899 2-2 2-1.109 0-2-.891-2-2 0-1.1.89-2 2-2z"/><path d="m50.01 35.99c1.101 0 2 .899 2 2 0 1.109-.899 2-2 2-1.109 0-2-.891-2-2 0-1.1.89-2 2-2z"/><path d="m43.01 35.99c1.101 0 2 .899 2 2 0 1.109-.899 2-2 2-1.109 0-2-.891-2-2 0-1.1.89-2 2-2z"/><path d="m43.01 49.99c1.101 0 2 .899 2 2 0 1.109-.899 2-2 2-1.109 0-2-.891-2-2 0-1.1.89-2 2-2z"/><path d="m50.01 42.99c1.101 0 2 .899 2 2 0 1.109-.899 2-2 2-1.109 0-2-.891-2-2 0-1.1.89-2 2-2z"/></g><path d="m61.01 57.99c1.101 0 2-.9 2-2v4c0 1.1-.899 2-2 2h-22c-1.1 0-2-.9-2-2v-4c0 1.1.9 2 2 2z" fill="#545c66"/><path d="m57.01 49.99c1.101 0 2 .899 2 2 0 1.109-.899 2-2 2-1.109 0-2-.891-2-2 0-1.1.89-2 2-2z" fill="#ccd1d9"/><path d="m57.01 42.99c1.101 0 2 .899 2 2 0 1.109-.899 2-2 2-1.109 0-2-.891-2-2 0-1.1.89-2 2-2z" fill="#ccd1d9"/><path d="m50.01 49.99c1.101 0 2 .899 2 2 0 1.109-.899 2-2 2-1.109 0-2-.891-2-2 0-1.1.89-2 2-2z" fill="#ccd1d9"/><path d="m43.01 39.99c1.101 0 2-.891 2-2 0-1.101-.899-2-2-2-1.109 0-2 .899-2 2 0 1.11.89 2 2 2zm7 0c1.101 0 2-.891 2-2 0-1.101-.899-2-2-2-1.109 0-2 .899-2 2 0 1.11.89 2 2 2zm-7 10c-1.109 0-2 .899-2 2 0 1.109.891 2 2 2 1.101 0 2-.891 2-2 0-1.1-.9-2-2-2zm0-7c-1.109 0-2 .899-2 2 0 1.109.891 2 2 2 1.101 0 2-.891 2-2 0-1.1-.9-2-2-2zm7 7c-1.109 0-2 .899-2 2 0 1.109.891 2 2 2 1.101 0 2-.891 2-2 0-1.1-.9-2-2-2zm0-7c-1.109 0-2 .899-2 2 0 1.109.891 2 2 2 1.101 0 2-.891 2-2 0-1.1-.9-2-2-2zm-.02-19h11.02c1.101 0 2 .899 2 2v4 26c0 1.1-.899 2-2 2h-22c-1.1 0-2-.9-2-2v-4.98-21.02-4c0-1.101.9-2 2-2zm7.02 16c1.101 0 2-.891 2-2 0-1.101-.899-2-2-2-1.109 0-2 .899-2 2 0 1.11.89 2 2 2zm0 10c-1.109 0-2 .899-2 2 0 1.109.891 2 2 2 1.101 0 2-.891 2-2 0-1.1-.9-2-2-2zm0-7c-1.109 0-2 .899-2 2 0 1.109.891 2 2 2 1.101 0 2-.891 2-2 0-1.1-.9-2-2-2zm2-11v-4h-18v4z" fill="#656d78"/><path d="m41.01 27.99h18v4h-18z" fill="#5d9cec"/><path d="m43.01 42.99c1.101 0 2 .899 2 2 0 1.109-.899 2-2 2-1.109 0-2-.891-2-2 0-1.1.89-2 2-2z" fill="#ccd1d9"/><path d="m27.99 2.01 2 6h-9l2-6z" fill="#ccd1d9"/><path d="m22.99 2.01-2 6h-20l5-6z" fill="#f6bb42"/><path d="m44.99 2.01 5 6h-20l-2-6z" fill="#f6bb42"/><path d="m29.99 8.01v9.01l-4.5-2.01-4.5 2.01v-9.01z" fill="#e6e9ed"/><path d="m49.99 8.01v15.98h-10.98c-1.1 0-2 .899-2 2v4 21.02h-.02-36v-43h20v9.01l4.5-2.01 4.5 2.01v-9.01z" fill="#ffce54"/><path d="m36.988 52.008-35.996-.004c-.553 0-1-.447-1-1v-42.996c0-.553.447-1 1-1h48.998c.553 0 1 .447 1 1v15.988c0 .553-.447 1-1 1s-1-.447-1-1v-14.988h-46.998v40.996l34.996.004c.553 0 1 .448 1 1 0 .553-.448 1-1 1z"/><path d="m.991 9.008c-.226 0-.452-.076-.64-.231-.423-.355-.481-.985-.127-1.41l5-5.998c.354-.423.983-.481 1.409-.128.424.355.481.985.128 1.409l-5 5.998c-.198.238-.483.36-.77.36z"/><path d="m49.991 9.008c-.287 0-.571-.122-.77-.359l-5-5.998c-.354-.425-.296-1.055.128-1.409.426-.354 1.055-.295 1.409.128l5 5.998c.354.425.296 1.055-.128 1.409-.187.155-.413.231-.639.231z"/><path d="m44.99 3.01h-38.998c-.553 0-1-.447-1-1s.447-1 1-1h38.998c.553 0 1 .447 1 1s-.447 1-1 1z"/><path d="m20.992 9.008c-.104 0-.211-.017-.316-.052-.523-.174-.807-.74-.632-1.265l2-5.998c.175-.523.735-.809 1.265-.632.523.174.807.74.632 1.265l-2 5.998c-.14.419-.53.684-.949.684z"/><path d="m29.992 9.008c-.419 0-.809-.265-.948-.684l-2-5.998c-.175-.524.108-1.091.632-1.265.529-.177 1.09.108 1.265.632l2 5.998c.175.524-.108 1.091-.632 1.265-.106.035-.212.052-.317.052z"/><path d="m20.992 18.014c-.553 0-1-.447-1-1v-9.006c0-.553.447-1 1-1s1 .447 1 1v9.006c0 .552-.447 1-1 1z"/><path d="m20.991 18.014c-.384 0-.749-.221-.915-.594-.224-.504.003-1.096.508-1.32l4.5-2.002c.505-.224 1.096.004 1.32.508s-.003 1.096-.508 1.32l-4.5 2.002c-.131.058-.269.086-.405.086z"/><path d="m29.991 18.014c-.136 0-.273-.027-.405-.086l-4.502-2.002c-.505-.225-.731-.815-.508-1.32.226-.504.816-.731 1.32-.508l4.502 2.002c.505.225.731.815.508 1.32-.166.373-.531.594-.915.594z"/><path d="m29.992 18.014c-.553 0-1-.447-1-1v-9.006c0-.553.447-1 1-1s1 .447 1 1v9.006c0 .552-.447 1-1 1z"/><path d="m23.992 41.012h-18c-.553 0-1-.447-1-1s.447-1 1-1h18c.553 0 1 .447 1 1s-.447 1-1 1z"/><path d="m23.992 44.006h-18c-.553 0-1-.447-1-1s.447-1 1-1h18c.553 0 1 .447 1 1s-.447 1-1 1z"/><path d="m14.992 47h-9c-.553 0-1-.447-1-1s.447-1 1-1h9c.553 0 1 .447 1 1s-.447 1-1 1z"/><path d="m61.008 58.99h-22c-1.654 0-3-1.346-3-3v-30c0-1.654 1.346-3 3-3h22c1.654 0 3 1.346 3 3v30c0 1.655-1.346 3-3 3zm-22-34c-.552 0-1 .448-1 1v30c0 .552.448 1 1 1h22c.552 0 1-.448 1-1v-30c0-.552-.448-1-1-1z"/><path d="m61.008 62.99h-22c-1.654 0-3-1.346-3-3v-30c0-.553.447-1 1-1s1 .447 1 1v30c0 .552.448 1 1 1h22c.552 0 1-.448 1-1v-30c0-.553.447-1 1-1s1 .447 1 1v30c0 1.655-1.346 3-3 3z"/><path d="m59.008 32.99h-18c-.553 0-1-.447-1-1v-4c0-.553.447-1 1-1h18c.553 0 1 .447 1 1v4c0 .553-.447 1-1 1zm-17-2h16v-2h-16z"/><path d="m43.008 40.99c-1.654 0-3-1.346-3-3s1.346-3 3-3 3 1.346 3 3-1.346 3-3 3zm0-4c-.552 0-1 .448-1 1s.448 1 1 1 1-.448 1-1-.448-1-1-1z"/><path d="m50.008 40.99c-1.654 0-3-1.346-3-3s1.346-3 3-3 3 1.346 3 3-1.346 3-3 3zm0-4c-.552 0-1 .448-1 1s.448 1 1 1 1-.448 1-1-.448-1-1-1z"/><path d="m57.008 40.99c-1.654 0-3-1.346-3-3s1.346-3 3-3 3 1.346 3 3-1.346 3-3 3zm0-4c-.552 0-1 .448-1 1s.448 1 1 1 1-.448 1-1-.448-1-1-1z"/><path d="m43.008 47.99c-1.654 0-3-1.346-3-3s1.346-3 3-3 3 1.346 3 3-1.346 3-3 3zm0-4c-.552 0-1 .448-1 1s.448 1 1 1 1-.448 1-1-.448-1-1-1z"/><path d="m50.008 47.99c-1.654 0-3-1.346-3-3s1.346-3 3-3 3 1.346 3 3-1.346 3-3 3zm0-4c-.552 0-1 .448-1 1s.448 1 1 1 1-.448 1-1-.448-1-1-1z"/><path d="m57.008 47.99c-1.654 0-3-1.346-3-3s1.346-3 3-3 3 1.346 3 3-1.346 3-3 3zm0-4c-.552 0-1 .448-1 1s.448 1 1 1 1-.448 1-1-.448-1-1-1z"/><path d="m43.008 54.99c-1.654 0-3-1.346-3-3s1.346-3 3-3 3 1.346 3 3-1.346 3-3 3zm0-4c-.552 0-1 .448-1 1s.448 1 1 1 1-.448 1-1-.448-1-1-1z"/><path d="m50.008 54.99c-1.654 0-3-1.346-3-3s1.346-3 3-3 3 1.346 3 3-1.346 3-3 3zm0-4c-.552 0-1 .448-1 1s.448 1 1 1 1-.448 1-1-.448-1-1-1z"/><path d="m57.008 54.99c-1.654 0-3-1.346-3-3s1.346-3 3-3 3 1.346 3 3-1.346 3-3 3zm0-4c-.552 0-1 .448-1 1s.448 1 1 1 1-.448 1-1-.448-1-1-1z"/></svg>