<svg id="icons" enable-background="new 0 0 64 64" height="512" viewBox="0 0 64 64" width="512" xmlns="http://www.w3.org/2000/svg"><path d="m61.01 57.99c1.101 0 2-.9 2-2v4c0 1.1-.899 2-2 2h-22c-1.1 0-2-.9-2-2v-4c0 1.1.9 2 2 2z" fill="#545c66"/><path d="m61.01 23.99h-11.02-10.98c-1.1 0-2 .899-2 2v4 21.02 4.98c0 1.1.9 2 2 2h22c1.101 0 2-.9 2-2v-26-4c0-1.1-.9-2-2-2z" fill="#656d78"/><g fill="#ccd1d9"><path d="m57.01 35.99c1.101 0 2 .899 2 2 0 1.109-.899 2-2 2-1.109 0-2-.891-2-2 0-1.1.89-2 2-2z"/><path d="m50.01 35.99c1.101 0 2 .899 2 2 0 1.109-.899 2-2 2-1.109 0-2-.891-2-2 0-1.1.89-2 2-2z"/><path d="m43.01 35.99c1.101 0 2 .899 2 2 0 1.109-.899 2-2 2-1.109 0-2-.891-2-2 0-1.1.89-2 2-2z"/><path d="m43.01 49.99c1.101 0 2 .899 2 2 0 1.109-.899 2-2 2-1.109 0-2-.891-2-2 0-1.1.89-2 2-2z"/><path d="m50.01 42.99c1.101 0 2 .899 2 2 0 1.109-.899 2-2 2-1.109 0-2-.891-2-2 0-1.1.89-2 2-2z"/><path d="m57.01 49.99c1.101 0 2 .899 2 2 0 1.109-.899 2-2 2-1.109 0-2-.891-2-2 0-1.1.89-2 2-2z"/><path d="m57.01 42.99c1.101 0 2 .899 2 2 0 1.109-.899 2-2 2-1.109 0-2-.891-2-2 0-1.1.89-2 2-2z"/><path d="m50.01 49.99c1.101 0 2 .899 2 2 0 1.109-.899 2-2 2-1.109 0-2-.891-2-2 0-1.1.89-2 2-2z"/></g><path d="m58.01 27.99c.55 0 1 .45 1 1v2c0 .55-.45 1-1 1h-16c-.55 0-1-.45-1-1v-2c0-.55.45-1 1-1z" fill="#5d9cec"/><path d="m43.01 42.99c1.101 0 2 .899 2 2 0 1.109-.899 2-2 2-1.109 0-2-.891-2-2 0-1.1.89-2 2-2z" fill="#ccd1d9"/><path d="m27.99 2.01 2 6h-9l2-6z" fill="#ccd1d9"/><path d="m22.99 2.01-2 6h-20l5-6z" fill="#f6bb42"/><path d="m44.99 2.01 5 6h-20l-2-6z" fill="#f6bb42"/><path d="m49.99 8.01v15.98h-10.98c-1.1 0-2 .899-2 2v4 21.02h-.02-36v-43h20v9.01l4.5-2.01 4.5 2.01v-9.01z" fill="#ffce54"/><path d="m23.992 41.012h-18c-.553 0-1-.447-1-1s.447-1 1-1h18c.553 0 1 .447 1 1s-.447 1-1 1z" fill="#edab37"/><path d="m23.992 44.006h-18c-.553 0-1-.447-1-1s.447-1 1-1h18c.553 0 1 .447 1 1s-.447 1-1 1z" fill="#edab37"/><path d="m14.992 47h-9c-.553 0-1-.447-1-1s.447-1 1-1h9c.553 0 1 .447 1 1s-.447 1-1 1z" fill="#edab37"/><path d="m27.991 8.01h-4.998-2-.003v9.01l.004-.002c.001.016.008.029.009.046.004.075.023.146.045.22.016.057.029.113.055.166.01.02.009.042.021.062.106.187.268.318.448.402.024.012.049.021.074.03.111.041.228.07.347.07h.001.002c.113-.001.228-.028.338-.068.03-.012.06-.022.088-.036.022-.011.046-.015.067-.027l3.003-1.718 3.004 1.718c.022.013.047.018.07.029.027.013.054.022.082.033.112.041.228.069.343.069h.001.002c.117-.001.231-.028.342-.069.028-.011.055-.021.081-.033.102-.048.198-.107.28-.188.004-.004.006-.009.01-.013.058-.06.11-.125.153-.2.01-.018.01-.037.018-.055.03-.06.046-.124.063-.189.018-.066.036-.129.039-.195.001-.018.009-.033.011-.051v-.001c0-.002.001-.003.001-.005v-9.005z" fill="#e6e9ed"/></svg>